<svg width="375" height="812" viewBox="0 0 375 812" fill="none" xmlns="http://www.w3.org/2000/svg">
  <rect width="375" height="812" fill="#121212"/>
  
  <text x="25" y="70" fill="white" font-family="Inter, Arial" font-size="32" font-weight="800">Impostazioni</text>
  <rect x="25" y="85" width="45" height="4" rx="2" fill="#FFD700"/>
  
  <text x="25" y="140" fill="#FFD700" font-family="Inter, Arial" font-size="12" font-weight="700" letter-spacing="0.05em">GESTIONE ACCOUNT</text>
  <rect x="20" y="155" width="335" height="64" rx="12" fill="#1E1E1E"/>
  <text x="40" y="193" fill="white" font-family="Inter, Arial" font-size="16">Profilo Utente</text>
  <path d="M315 180L325 187L315 194" stroke="#FFD700" stroke-width="2.5" stroke-linecap="round" stroke-linejoin="round"/>

  <text x="25" y="260" fill="#FFD700" font-family="Inter, Arial" font-size="12" font-weight="700" letter-spacing="0.05em">PREFERENZE DI SISTEMA</text>
  
  <rect x="20" y="275" width="335" height="190" rx="12" fill="#1E1E1E"/>
  
  <text x="40" y="315" fill="white" font-family="Inter, Arial" font-size="15">Temperatura</text>
  <rect x="270" y="295" width="65" height="30" rx="6" fill="#2A2A2A"/>
  <text x="302.5" y="315" fill="#FFD700" font-family="Inter, Arial" font-size="14" font-weight="700" text-anchor="middle">&lt; C &gt;</text>
  <line x1="40" y1="338" x2="335" y2="338" stroke="#2A2A2A"/>

  <text x="40" y="375" fill="white" font-family="Inter, Arial" font-size="15">Peso</text>
  <rect x="270" y="355" width="65" height="30" rx="6" fill="#2A2A2A"/>
  <text x="302.5" y="375" fill="#FFD700" font-family="Inter, Arial" font-size="14" font-weight="700" text-anchor="middle">&lt; g &gt;</text>
  <line x1="40" y1="398" x2="335" y2="398" stroke="#2A2A2A"/>

  <text x="40" y="435" fill="white" font-family="Inter, Arial" font-size="15">Lingua</text>
  <rect x="270" y="415" width="65" height="30" rx="6" fill="#2A2A2A"/>
  <text x="302.5" y="435" fill="#FFD700" font-family="Inter, Arial" font-size="14" font-weight="700" text-anchor="middle">ITA</text>

  <text x="25" y="505" fill="#FFD700" font-family="Inter, Arial" font-size="12" font-weight="700" letter-spacing="0.05em">SISTEMI E INFORMAZIONI</text>
  <rect x="20" y="520" width="335" height="120" rx="12" fill="#1E1E1E"/>
  <text x="40" y="560" fill="white" font-family="Inter, Arial" font-size="15">Notifiche</text>
  <rect x="290" y="545" width="40" height="20" rx="10" fill="#FFD700"/>
  <circle cx="320" cy="555" r="7" fill="black"/>
  
  <line x1="40" y1="580" x2="335" y2="580" stroke="#2A2A2A"/>
  <text x="40" y="610" fill="white" font-family="Inter, Arial" font-size="15">Versione Software</text>
  <text x="330" y="610" fill="#666666" font-family="Inter, Arial" font-size="13" text-anchor="end">v. 1.0.2</text>

  <rect x="20" y="710" width="335" height="56" rx="8" fill="#FFD700"/>
  <text x="187.5" y="745" fill="black" font-family="Inter, Arial" font-size="16" font-weight="800" text-anchor="middle">DISCONNETTI</text>
</svg>